<?xml version="1.0" encoding="utf-8"?>
<!-- Generator: Adobe Illustrator 19.1.0, SVG Export Plug-In . SVG Version: 6.00 Build 0)  -->
<svg version="1.1" xmlns="http://www.w3.org/2000/svg" xmlns:xlink="http://www.w3.org/1999/xlink" x="0px" y="0px"
	 viewBox="0 0 1000 1000" style="enable-background:new 0 0 1000 1000;" xml:space="preserve">
<style type="text/css">
	.st0{fill:#FFFFFF;stroke:#000000;stroke-miterlimit:10;}
</style>
<g id="Guides">
</g>
<g id="dummy">
	<rect id="d-9" x="680" y="679" class="st0" width="320" height="321"/>
	<rect id="d-8" x="347" y="679" class="st0" width="307" height="321"/>
	<rect id="d-7" y="679" class="st0" width="320" height="321"/>
	<rect id="d-6" x="680" y="346" class="st0" width="320" height="309"/>
	<rect id="d-5" x="347" y="346" class="st0" width="307" height="309"/>
	<rect id="d-4" y="346" class="st0" width="320" height="309"/>
	<rect id="d-3" x="680" class="st0" width="320" height="321"/>
	<rect id="d-2" x="347" class="st0" width="307" height="321"/>
	<rect id="d-1" class="st0" width="320" height="321"/>
</g>
<g id="indics-o">
	<path id="o-9" d="M833.5,741.95c-50.56,0-91.55,40.99-91.55,91.55s40.99,91.55,91.55,91.55s91.55-40.99,91.55-91.55
		S884.06,741.95,833.5,741.95z M833.5,905.56c-39.8,0-72.06-32.26-72.06-72.06s32.26-72.06,72.06-72.06s72.06,32.26,72.06,72.06
		S873.3,905.56,833.5,905.56z"/>
	<path id="o-8" d="M500,741.95c-50.56,0-91.55,40.99-91.55,91.55s40.99,91.55,91.55,91.55s91.55-40.99,91.55-91.55
		S550.56,741.95,500,741.95z M500,905.56c-39.8,0-72.06-32.26-72.06-72.06s32.26-72.06,72.06-72.06s72.06,32.26,72.06,72.06
		S539.8,905.56,500,905.56z"/>
	<path id="o-7" d="M167.05,741.95c-50.56,0-91.55,40.99-91.55,91.55s40.99,91.55,91.55,91.55s91.55-40.99,91.55-91.55
		S217.61,741.95,167.05,741.95z M167.05,905.56c-39.8,0-72.06-32.26-72.06-72.06s32.26-72.06,72.06-72.06s72.06,32.26,72.06,72.06
		S206.85,905.56,167.05,905.56z"/>
	<path id="o-6" d="M833.5,408.95c-50.56,0-91.55,40.99-91.55,91.55c0,50.56,40.99,91.55,91.55,91.55s91.55-40.99,91.55-91.55
		C925.05,449.94,884.06,408.95,833.5,408.95z M833.5,572.56c-39.8,0-72.06-32.26-72.06-72.06c0-39.8,32.26-72.06,72.06-72.06
		s72.06,32.26,72.06,72.06C905.56,540.3,873.3,572.56,833.5,572.56z"/>
	<path id="o-5" d="M500,408.95c-50.56,0-91.55,40.99-91.55,91.55c0,50.56,40.99,91.55,91.55,91.55s91.55-40.99,91.55-91.55
		C591.55,449.94,550.56,408.95,500,408.95z M500,572.56c-39.8,0-72.06-32.26-72.06-72.06c0-39.8,32.26-72.06,72.06-72.06
		s72.06,32.26,72.06,72.06C572.06,540.3,539.8,572.56,500,572.56z"/>
	<path id="o-4" d="M167.05,408.95c-50.56,0-91.55,40.99-91.55,91.55c0,50.56,40.99,91.55,91.55,91.55s91.55-40.99,91.55-91.55
		C258.6,449.94,217.61,408.95,167.05,408.95z M167.05,572.56c-39.8,0-72.06-32.26-72.06-72.06c0-39.8,32.26-72.06,72.06-72.06
		s72.06,32.26,72.06,72.06C239.11,540.3,206.85,572.56,167.05,572.56z"/>
	<path id="o-3" d="M833.5,74.51c-50.56,0-91.55,40.99-91.55,91.55c0,50.56,40.99,91.55,91.55,91.55s91.55-40.99,91.55-91.55
		C925.05,115.5,884.06,74.51,833.5,74.51z M833.5,238.12c-39.8,0-72.06-32.26-72.06-72.06c0-39.8,32.26-72.06,72.06-72.06
		s72.06,32.26,72.06,72.06C905.56,205.86,873.3,238.12,833.5,238.12z"/>
	<path id="o-2" d="M500,74.51c-50.56,0-91.55,40.99-91.55,91.55c0,50.56,40.99,91.55,91.55,91.55s91.55-40.99,91.55-91.55
		C591.55,115.5,550.56,74.51,500,74.51z M500,238.12c-39.8,0-72.06-32.26-72.06-72.06C427.94,126.26,460.2,94,500,94
		s72.06,32.26,72.06,72.06C572.06,205.86,539.8,238.12,500,238.12z"/>
	<path id="o-1" d="M167.05,74.51c-50.56,0-91.55,40.99-91.55,91.55c0,50.56,40.99,91.55,91.55,91.55s91.55-40.99,91.55-91.55
		C258.6,115.5,217.61,74.51,167.05,74.51z M167.05,238.12c-39.8,0-72.06-32.26-72.06-72.06C95,126.26,127.26,94,167.05,94
		s72.06,32.26,72.06,72.06C239.11,205.86,206.85,238.12,167.05,238.12z"/>
</g>
<g id="indics-x">
	<polygon id="x-1" points="266.13,81.13 251.98,66.99 167.05,151.92 82.12,66.99 67.98,81.13 152.91,166.06 67.98,250.99 
		82.12,265.13 167.05,180.2 251.98,265.13 266.13,250.99 181.2,166.06 	"/>
	<polygon id="x-2" points="599.13,81.13 584.98,66.99 500.05,151.92 415.12,66.99 400.98,81.13 485.91,166.06 400.98,250.99 
		415.12,265.13 500.05,180.2 584.98,265.13 599.13,250.99 514.2,166.06 	"/>
	<polygon id="x-3" points="932.13,81.13 917.98,66.99 833.05,151.92 748.12,66.99 733.98,81.13 818.91,166.06 733.98,250.99 
		748.12,265.13 833.05,180.2 917.98,265.13 932.13,250.99 847.2,166.06 	"/>
	<polygon id="x-4" points="266.13,415.13 251.98,400.99 167.05,485.92 82.12,400.99 67.98,415.13 152.91,500.06 67.98,584.99 
		82.12,599.13 167.05,514.2 251.98,599.13 266.13,584.99 181.2,500.06 	"/>
	<polygon id="x-5" points="599.13,415.13 584.98,400.99 500.05,485.92 415.12,400.99 400.98,415.13 485.91,500.06 400.98,584.99 
		415.12,599.13 500.05,514.2 584.98,599.13 599.13,584.99 514.2,500.06 	"/>
	<polygon id="x-6" points="932.13,415.13 917.98,400.99 833.05,485.92 748.12,400.99 733.98,415.13 818.91,500.06 733.98,584.99 
		748.12,599.13 833.05,514.2 917.98,599.13 932.13,584.99 847.2,500.06 	"/>
	<polygon id="x-7" points="266.13,748.13 251.98,733.99 167.05,818.92 82.12,733.99 67.98,748.13 152.91,833.06 67.98,917.99 
		82.12,932.13 167.05,847.2 251.98,932.13 266.13,917.99 181.2,833.06 	"/>
	<polygon id="x-8" points="599.13,748.13 584.98,733.99 500.05,818.92 415.12,733.99 400.98,748.13 485.91,833.06 400.98,917.99 
		415.12,932.13 500.05,847.2 584.98,932.13 599.13,917.99 514.2,833.06 	"/>
	<polygon id="x-9" points="932.13,748.13 917.98,733.99 833.05,818.92 748.12,733.99 733.98,748.13 818.91,833.06 733.98,917.99 
		748.12,932.13 833.05,847.2 917.98,932.13 932.13,917.99 847.2,833.06 	"/>
</g>
<g id="grid">
	<path d="M1000,346v-25H679V0h-25v321H345V0h-25v321H0v25h320v309H0v25h320v320h25V680h309v320h25V680h321v-25H679V346H1000z
		 M654,655H345V346h309V655z"/>
</g>
</svg>
